<?xml version="1.0" encoding="UTF-8" standalone="no"?>
<!-- Created with Inkscape (http://www.inkscape.org/) -->

<svg
   xmlns:dc="http://purl.org/dc/elements/1.1/"
   xmlns:cc="http://creativecommons.org/ns#"
   xmlns:rdf="http://www.w3.org/1999/02/22-rdf-syntax-ns#"
   xmlns:svg="http://www.w3.org/2000/svg"
   xmlns="http://www.w3.org/2000/svg"
   xmlns:sodipodi="http://sodipodi.sourceforge.net/DTD/sodipodi-0.dtd"
   xmlns:inkscape="http://www.inkscape.org/namespaces/inkscape"
   width="100mm"
   height="100mm"
   viewBox="0 0 100 100"
   version="1.1"
   id="svg8"
   inkscape:version="0.92.3 (2405546, 2018-03-11)"
   sodipodi:docname="pan.svg">
  <defs
     id="defs2" />
  <sodipodi:namedview
     id="base"
     pagecolor="#ffffff"
     bordercolor="#666666"
     borderopacity="1.0"
     inkscape:pageopacity="0.0"
     inkscape:pageshadow="2"
     inkscape:zoom="3.0351563"
     inkscape:cx="310.65873"
     inkscape:cy="14.147787"
     inkscape:document-units="mm"
     inkscape:current-layer="layer1"
     showgrid="false"
     inkscape:snap-global="false"
     inkscape:window-width="1364"
     inkscape:window-height="747"
     inkscape:window-x="0"
     inkscape:window-y="0"
     inkscape:window-maximized="0" />
  <metadata
     id="metadata5">
    <rdf:RDF>
      <cc:Work
         rdf:about="">
        <dc:format>image/svg+xml</dc:format>
        <dc:type
           rdf:resource="http://purl.org/dc/dcmitype/StillImage" />
        <dc:title />
      </cc:Work>
    </rdf:RDF>
  </metadata>
  <g
     inkscape:label="Layer 1"
     inkscape:groupmode="layer"
     id="layer1"
     transform="translate(0,-197)">
    <path
       id="path873"
       d="m 93.565395,221.25684 v 57.42705 c 0,8.71311 -7.128882,15.84199 -15.841955,15.84199 H 48.81186 c -4.277329,0 -8.317028,-1.703 -11.287396,-4.713 L 6.4346052,258.20817 c 0,0 4.9902178,-4.87136 5.1486398,-4.95062 0.87131,-0.75248 1.940642,-1.14848 3.128789,-1.14848 0.871303,0 1.663406,0.23725 2.376294,0.63393 0.158445,0.0374 17.06971,9.7428 17.06971,9.7428 v -47.1694 c 0,-3.28721 2.65353,-5.94073 5.940742,-5.94073 3.287204,0 5.940735,2.65352 5.940735,5.94073 v 27.72338 h 3.960492 v -37.62463 c 0,-3.28751 2.653524,-5.94103 5.940735,-5.94103 3.287205,0 5.940735,2.65352 5.940735,5.94074 v 37.62463 h 3.960485 v -33.66412 c 0,-3.28722 2.653531,-5.94073 5.940735,-5.94073 3.287212,0 5.940743,2.65351 5.940743,5.94073 v 33.66412 h 3.960485 v -21.78265 c 0,-3.28722 2.653531,-5.94073 5.940735,-5.94073 3.287212,0 5.940735,2.65351 5.940735,5.94073 z"
       inkscape:connector-curvature="0"
       style="stroke-width:1.98024487;fill:#808080;fill-opacity:1" />
  </g>
</svg>
